<mxfile host="app.diagrams.net" modified="2024-04-15T01:53:21.772Z" agent="Mozilla/5.0 (Macintosh; Intel Mac OS X 10_15_7) AppleWebKit/537.36 (KHTML, like Gecko) Chrome/123.0.0.0 Safari/537.36" version="24.2.0" etag="IDFEdJr7EK2rxPwqtIUw" type="github">
  <diagram name="第 1 页" id="Mhg9mUXGspstibMx1DRs">
    <mxGraphModel>
      <root>
        <mxCell id="0" />
        <mxCell id="1" parent="0" />
      </root>
    </mxGraphModel>
  </diagram>
</mxfile>
